<?xml version="1.0" encoding="utf-8"?>
<!-- Generator: Adobe Illustrator 25.2.3, SVG Export Plug-In . SVG Version: 6.00 Build 0)  -->
<svg version="1.1" id="Layer_1" xmlns="http://www.w3.org/2000/svg" xmlns:xlink="http://www.w3.org/1999/xlink" x="0px" y="0px"
	 viewBox="0 0 59.9 53.5" style="enable-background:new 0 0 59.9 53.5;" xml:space="preserve">
<style type="text/css">
	.st0{fill:#CAD3CC;}
	.st1{fill:none;stroke:#2C4F32;stroke-width:1.5765;stroke-linecap:round;stroke-linejoin:round;stroke-miterlimit:10;}
</style>
<g>
	<polygon class="st0" points="30.4,39.4 30.5,33.3 39.6,33.3 38.6,37 37.7,39.7 	"/>
	<rect x="13.4" y="26.3" class="st0" width="7.8" height="6.7"/>
	<polygon class="st0" points="21,26.3 30.5,26.3 30.5,19.5 22.8,19.5 	"/>
	<g>
		<line class="st1" x1="53.3" y1="14.1" x2="49.1" y2="16.9"/>
		<line class="st1" x1="11.2" y1="42" x2="6.6" y2="45.1"/>
		<line class="st1" x1="57.5" y1="24.2" x2="52.5" y2="25.2"/>
		<line class="st1" x1="7.9" y1="34" x2="2.5" y2="35.1"/>
		<line class="st1" x1="57.5" y1="35.1" x2="52.5" y2="34.1"/>
		<line class="st1" x1="7.9" y1="25.3" x2="2.5" y2="24.2"/>
		<line class="st1" x1="53.3" y1="45.1" x2="49.1" y2="42.4"/>
		<line class="st1" x1="11.2" y1="17.2" x2="6.6" y2="14.1"/>
		<line class="st1" x1="17.1" y1="19.5" x2="43.6" y2="19.5"/>
		<line class="st1" x1="14.1" y1="26.3" x2="46.4" y2="26.3"/>
		<line class="st1" x1="14.1" y1="33" x2="46.4" y2="33"/>
		<line class="st1" x1="17.1" y1="39.7" x2="43.6" y2="39.7"/>
		<circle class="st1" cx="30.3" cy="29.6" r="16.9"/>
		<ellipse class="st1" cx="30.3" cy="29.6" rx="9.3" ry="16.8"/>
		<line class="st1" x1="30.3" y1="46.5" x2="30.3" y2="12.8"/>
		<line class="st1" x1="30.3" y1="12.8" x2="30.3" y2="1.9"/>
	</g>
</g>
</svg>
