<?xml version="1.0" encoding="utf-8"?>
<!-- Generator: Adobe Illustrator 25.2.3, SVG Export Plug-In . SVG Version: 6.00 Build 0)  -->
<svg version="1.1" id="Layer_1" xmlns="http://www.w3.org/2000/svg" xmlns:xlink="http://www.w3.org/1999/xlink" x="0px" y="0px"
	 viewBox="0 0 120.8 94.5" style="enable-background:new 0 0 120.8 94.5;" xml:space="preserve">
<style type="text/css">
	.st0{fill:#CAD3CC;}
	.st1{fill:none;stroke:#2C4F32;stroke-width:2.7517;stroke-linecap:round;stroke-linejoin:round;stroke-miterlimit:10;}
</style>
<g id="Layer_3">
</g>
<g id="Text">
</g>
<g id="Branches">
	<g>
		<polygon class="st0" points="62,76 62.1,65.1 78.4,65.1 76.7,71.8 75.1,76.7 		"/>
		<rect x="31.6" y="52.6" class="st0" width="14" height="12.1"/>
		<polygon class="st0" points="45.1,52.6 62.1,52.6 62.1,40.5 48.5,40.5 		"/>
		<g>
			<line class="st1" x1="103.1" y1="30.9" x2="95.5" y2="35.8"/>
			<line class="st1" x1="27.7" y1="80.8" x2="19.4" y2="86.4"/>
			<line class="st1" x1="110.5" y1="48.9" x2="101.6" y2="50.6"/>
			<line class="st1" x1="21.8" y1="66.4" x2="12" y2="68.3"/>
			<line class="st1" x1="110.5" y1="68.3" x2="101.6" y2="66.6"/>
			<line class="st1" x1="21.8" y1="50.8" x2="12" y2="48.9"/>
			<line class="st1" x1="103.1" y1="86.4" x2="95.5" y2="81.4"/>
			<line class="st1" x1="27.7" y1="36.4" x2="19.4" y2="30.9"/>
			<line class="st1" x1="38.3" y1="40.5" x2="85.7" y2="40.5"/>
			<line class="st1" x1="32.8" y1="52.6" x2="90.7" y2="52.6"/>
			<line class="st1" x1="32.8" y1="64.7" x2="90.7" y2="64.7"/>
			<line class="st1" x1="38.3" y1="76.7" x2="85.7" y2="76.7"/>
			<circle class="st1" cx="61.8" cy="58.6" r="30.2"/>
			<ellipse class="st1" cx="61.8" cy="58.6" rx="16.6" ry="30.1"/>
			<line class="st1" x1="61.8" y1="88.8" x2="61.8" y2="28.4"/>
			<line class="st1" x1="61.8" y1="28.4" x2="61.8" y2="8.9"/>
		</g>
	</g>
</g>
</svg>
